<?xml version="1.0" encoding="UTF-8" standalone="no"?>
<!DOCTYPE svg PUBLIC "-//W3C//DTD SVG 1.1//EN"
 "http://www.w3.org/Graphics/SVG/1.1/DTD/svg11.dtd">
<!-- Generated by graphviz version 2.40.1 (20161225.0304)
 -->
<!-- Title: G Pages: 1 -->
<svg width="508pt" height="557pt"
 viewBox="0.00 0.00 508.30 557.00" xmlns="http://www.w3.org/2000/svg" xmlns:xlink="http://www.w3.org/1999/xlink">
<g id="graph0" class="graph" transform="scale(1 1) rotate(0) translate(4 553)">
<title>G</title>
<polygon fill="#ffffff" stroke="transparent" points="-4,4 -4,-553 504.3,-553 504.3,4 -4,4"/>
<!-- start -->
<g id="node1" class="node">
<title>start</title>
<ellipse fill="none" stroke="#000000" cx="105.5" cy="-531" rx="27" ry="18"/>
<text text-anchor="middle" x="105.5" y="-527.3" font-family="Times,serif" font-size="14.00" fill="#000000">start</text>
</g>
<!-- a -->
<g id="node12" class="node">
<title>a</title>
<polygon fill="none" stroke="#000000" points="160,-476 51,-476 51,-440 160,-440 160,-476"/>
<text text-anchor="middle" x="105.5" y="-454.3" font-family="Times,serif" font-size="14.00" fill="#000000">Print main menu</text>
</g>
<!-- start&#45;&gt;a -->
<g id="edge1" class="edge">
<title>start&#45;&gt;a</title>
<path fill="none" stroke="#000000" d="M105.5,-512.9551C105.5,-504.8828 105.5,-495.1764 105.5,-486.1817"/>
<polygon fill="#000000" stroke="#000000" points="109.0001,-486.0903 105.5,-476.0904 102.0001,-486.0904 109.0001,-486.0903"/>
</g>
<!-- stop -->
<g id="node2" class="node">
<title>stop</title>
<ellipse fill="none" stroke="#000000" cx="443.5" cy="-93" rx="27" ry="18"/>
<text text-anchor="middle" x="443.5" y="-89.3" font-family="Times,serif" font-size="14.00" fill="#000000">stop</text>
</g>
<!-- _a -->
<g id="node3" class="node">
<title>_a</title>
<ellipse fill="#000000" stroke="#000000" cx="105.5" cy="-312" rx="1.8" ry="1.8"/>
</g>
<!-- _b -->
<g id="node4" class="node">
<title>_b</title>
<ellipse fill="#000000" stroke="#000000" cx="105.5" cy="-239" rx="1.8" ry="1.8"/>
</g>
<!-- _a&#45;&gt;_b -->
<g id="edge4" class="edge">
<title>_a&#45;&gt;_b</title>
<path fill="none" stroke="#000000" d="M105.5,-310.1955C105.5,-302.1782 105.5,-269.3832 105.5,-251.2313"/>
<polygon fill="#000000" stroke="#000000" points="109.0001,-251.0095 105.5,-241.0095 102.0001,-251.0095 109.0001,-251.0095"/>
</g>
<!-- c -->
<g id="node14" class="node">
<title>c</title>
<polygon fill="none" stroke="#000000" points="384,-330 285,-330 285,-294 384,-294 384,-330"/>
<text text-anchor="middle" x="334.5" y="-308.3" font-family="Times,serif" font-size="14.00" fill="#000000">Purchase ticket</text>
</g>
<!-- _a&#45;&gt;c -->
<g id="edge18" class="edge">
<title>_a&#45;&gt;c</title>
<path fill="none" stroke="#000000" d="M107.4797,-312C121.9318,-312 212.3703,-312 274.6418,-312"/>
<polygon fill="#000000" stroke="#000000" points="274.7619,-315.5001 284.7619,-312 274.7619,-308.5001 274.7619,-315.5001"/>
<text text-anchor="middle" x="196.15" y="-333.8" font-family="Times,serif" font-size="14.00" fill="#000000">If user want to</text>
<text text-anchor="middle" x="196.15" y="-318.8" font-family="Times,serif" font-size="14.00" fill="#000000">purchase ticket</text>
</g>
<!-- _c -->
<g id="node5" class="node">
<title>_c</title>
<ellipse fill="#000000" stroke="#000000" cx="105.5" cy="-166" rx="1.8" ry="1.8"/>
</g>
<!-- _b&#45;&gt;_c -->
<g id="edge5" class="edge">
<title>_b&#45;&gt;_c</title>
<path fill="none" stroke="#000000" d="M105.5,-237.1955C105.5,-229.1782 105.5,-196.3832 105.5,-178.2313"/>
<polygon fill="#000000" stroke="#000000" points="109.0001,-178.0095 105.5,-168.0095 102.0001,-178.0095 109.0001,-178.0095"/>
</g>
<!-- d -->
<g id="node15" class="node">
<title>d</title>
<polygon fill="none" stroke="#000000" points="443.5,-257 283.5,-257 283.5,-221 443.5,-221 443.5,-257"/>
<text text-anchor="middle" x="363.5" y="-235.3" font-family="Times,serif" font-size="14.00" fill="#000000">View seating arrangement</text>
</g>
<!-- _b&#45;&gt;d -->
<g id="edge19" class="edge">
<title>_b&#45;&gt;d</title>
<path fill="none" stroke="#000000" d="M107.4284,-239C121.1129,-239 204.9635,-239 273.0434,-239"/>
<polygon fill="#000000" stroke="#000000" points="273.3917,-242.5001 283.3917,-239 273.3916,-235.5001 273.3917,-242.5001"/>
<text text-anchor="middle" x="195.4" y="-260.8" font-family="Times,serif" font-size="14.00" fill="#000000">If user want to</text>
<text text-anchor="middle" x="195.4" y="-245.8" font-family="Times,serif" font-size="14.00" fill="#000000">view seating arrangement</text>
</g>
<!-- _d -->
<g id="node6" class="node">
<title>_d</title>
<ellipse fill="#000000" stroke="#000000" cx="105.5" cy="-93" rx="1.8" ry="1.8"/>
</g>
<!-- _c&#45;&gt;_d -->
<g id="edge6" class="edge">
<title>_c&#45;&gt;_d</title>
<path fill="none" stroke="#000000" d="M105.5,-164.1955C105.5,-156.1782 105.5,-123.3832 105.5,-105.2313"/>
<polygon fill="#000000" stroke="#000000" points="109.0001,-105.0095 105.5,-95.0095 102.0001,-105.0095 109.0001,-105.0095"/>
</g>
<!-- e -->
<g id="node16" class="node">
<title>e</title>
<polygon fill="none" stroke="#000000" points="420.5,-184 284.5,-184 284.5,-148 420.5,-148 420.5,-184"/>
<text text-anchor="middle" x="352.5" y="-162.3" font-family="Times,serif" font-size="14.00" fill="#000000">Search passenger info</text>
</g>
<!-- _c&#45;&gt;e -->
<g id="edge20" class="edge">
<title>_c&#45;&gt;e</title>
<path fill="none" stroke="#000000" d="M107.3462,-166C121.0141,-166 207.7955,-166 274.2691,-166"/>
<polygon fill="#000000" stroke="#000000" points="274.3332,-169.5001 284.3331,-166 274.3331,-162.5001 274.3332,-169.5001"/>
<text text-anchor="middle" x="195.9" y="-187.8" font-family="Times,serif" font-size="14.00" fill="#000000">If user want to</text>
<text text-anchor="middle" x="195.9" y="-172.8" font-family="Times,serif" font-size="14.00" fill="#000000">search passenger info</text>
</g>
<!-- f -->
<g id="node17" class="node">
<title>f</title>
<polygon fill="none" stroke="#000000" points="209,-38 2,-38 2,0 209,0 209,-38"/>
<text text-anchor="middle" x="105.5" y="-22.8" font-family="Times,serif" font-size="14.00" fill="#000000">Print error message,</text>
<text text-anchor="middle" x="105.5" y="-7.8" font-family="Times,serif" font-size="14.00" fill="#000000">because user gives an invalid input</text>
</g>
<!-- _d&#45;&gt;f -->
<g id="edge7" class="edge">
<title>_d&#45;&gt;f</title>
<path fill="none" stroke="#000000" d="M105.5,-91.1708C105.5,-85.199 105.5,-65.6663 105.5,-48.4257"/>
<polygon fill="#000000" stroke="#000000" points="109.0001,-48.129 105.5,-38.129 102.0001,-48.129 109.0001,-48.129"/>
</g>
<!-- g -->
<g id="node18" class="node">
<title>g</title>
<polygon fill="none" stroke="#000000" points="381,-111 230,-111 230,-75 381,-75 381,-111"/>
<text text-anchor="middle" x="305.5" y="-89.3" font-family="Times,serif" font-size="14.00" fill="#000000">Print thank you message</text>
</g>
<!-- _d&#45;&gt;g -->
<g id="edge21" class="edge">
<title>_d&#45;&gt;g</title>
<path fill="none" stroke="#000000" d="M107.7461,-93C119.1047,-93 171.5652,-93 219.5978,-93"/>
<polygon fill="#000000" stroke="#000000" points="219.7639,-96.5001 229.7638,-93 219.7638,-89.5001 219.7639,-96.5001"/>
<text text-anchor="middle" x="168.65" y="-99.8" font-family="Times,serif" font-size="14.00" fill="#000000">If user want to quit</text>
</g>
<!-- _f -->
<g id="node7" class="node">
<title>_f</title>
<ellipse fill="#000000" stroke="#000000" cx="498.5" cy="-385" rx="1.8" ry="1.8"/>
</g>
<!-- _g -->
<g id="node8" class="node">
<title>_g</title>
<ellipse fill="#000000" stroke="#000000" cx="498.5" cy="-312" rx="1.8" ry="1.8"/>
</g>
<!-- _f&#45;&gt;_g -->
<g id="edge8" class="edge">
<title>_f&#45;&gt;_g</title>
<path fill="none" stroke="#000000" d="M498.5,-372.9551C498.5,-354.9922 498.5,-322.3948 498.5,-314.0095"/>
<polygon fill="#000000" stroke="#000000" points="495.0001,-373.1955 498.5,-383.1955 502.0001,-373.1955 495.0001,-373.1955"/>
</g>
<!-- _h -->
<g id="node9" class="node">
<title>_h</title>
<ellipse fill="#000000" stroke="#000000" cx="498.5" cy="-239" rx="1.8" ry="1.8"/>
</g>
<!-- _g&#45;&gt;_h -->
<g id="edge9" class="edge">
<title>_g&#45;&gt;_h</title>
<path fill="none" stroke="#000000" d="M498.5,-299.9551C498.5,-281.9922 498.5,-249.3948 498.5,-241.0095"/>
<polygon fill="#000000" stroke="#000000" points="495.0001,-300.1955 498.5,-310.1955 502.0001,-300.1955 495.0001,-300.1955"/>
</g>
<!-- _i -->
<g id="node10" class="node">
<title>_i</title>
<ellipse fill="#000000" stroke="#000000" cx="498.5" cy="-166" rx="1.8" ry="1.8"/>
</g>
<!-- _h&#45;&gt;_i -->
<g id="edge10" class="edge">
<title>_h&#45;&gt;_i</title>
<path fill="none" stroke="#000000" d="M498.5,-226.9551C498.5,-208.9922 498.5,-176.3948 498.5,-168.0095"/>
<polygon fill="#000000" stroke="#000000" points="495.0001,-227.1955 498.5,-237.1955 502.0001,-227.1955 495.0001,-227.1955"/>
</g>
<!-- _k -->
<g id="node11" class="node">
<title>_k</title>
<ellipse fill="#000000" stroke="#000000" cx="498.5" cy="-19" rx="1.8" ry="1.8"/>
</g>
<!-- _i&#45;&gt;_k -->
<g id="edge11" class="edge">
<title>_i&#45;&gt;_k</title>
<path fill="none" stroke="#000000" d="M498.5,-153.6399C498.5,-121.0567 498.5,-34.3867 498.5,-20.8023"/>
<polygon fill="#000000" stroke="#000000" points="495.0001,-153.9219 498.5,-163.922 502.0001,-153.922 495.0001,-153.9219"/>
</g>
<!-- b -->
<g id="node13" class="node">
<title>b</title>
<polygon fill="none" stroke="#000000" points="211,-403 0,-403 0,-367 211,-367 211,-403"/>
<text text-anchor="middle" x="105.5" y="-381.3" font-family="Times,serif" font-size="14.00" fill="#000000">Get main menu selection from user</text>
</g>
<!-- a&#45;&gt;b -->
<g id="edge2" class="edge">
<title>a&#45;&gt;b</title>
<path fill="none" stroke="#000000" d="M105.5,-439.9551C105.5,-431.8828 105.5,-422.1764 105.5,-413.1817"/>
<polygon fill="#000000" stroke="#000000" points="109.0001,-413.0903 105.5,-403.0904 102.0001,-413.0904 109.0001,-413.0903"/>
</g>
<!-- b&#45;&gt;_a -->
<g id="edge3" class="edge">
<title>b&#45;&gt;_a</title>
<path fill="none" stroke="#000000" d="M105.5,-366.9551C105.5,-353.6025 105.5,-335.7784 105.5,-324.101"/>
<polygon fill="#000000" stroke="#000000" points="109.0001,-323.8525 105.5,-313.8525 102.0001,-323.8525 109.0001,-323.8525"/>
</g>
<!-- b&#45;&gt;_f -->
<g id="edge12" class="edge">
<title>b&#45;&gt;_f</title>
<path fill="none" stroke="#000000" d="M221.0789,-385C312.8976,-385 404.7163,-385 496.535,-385"/>
<polygon fill="#000000" stroke="#000000" points="221.042,-381.5001 211.042,-385 221.042,-388.5001 221.042,-381.5001"/>
</g>
<!-- c&#45;&gt;_g -->
<g id="edge13" class="edge">
<title>c&#45;&gt;_g</title>
<path fill="none" stroke="#000000" d="M384.1484,-312C418.1634,-312 452.1785,-312 486.1935,-312"/>
<polygon fill="#000000" stroke="#000000" points="486.2666,-315.5001 496.2666,-312 486.2665,-308.5001 486.2666,-315.5001"/>
</g>
<!-- d&#45;&gt;_h -->
<g id="edge14" class="edge">
<title>d&#45;&gt;_h</title>
<path fill="none" stroke="#000000" d="M443.6563,-239C457.7923,-239 471.9284,-239 486.0644,-239"/>
<polygon fill="#000000" stroke="#000000" points="486.3577,-242.5001 496.3577,-239 486.3576,-235.5001 486.3577,-242.5001"/>
</g>
<!-- e&#45;&gt;_i -->
<g id="edge15" class="edge">
<title>e&#45;&gt;_i</title>
<path fill="none" stroke="#000000" d="M420.6523,-166C442.6278,-166 464.6032,-166 486.5786,-166"/>
<polygon fill="#000000" stroke="#000000" points="486.6755,-169.5001 496.6754,-166 486.6754,-162.5001 486.6755,-169.5001"/>
</g>
<!-- f&#45;&gt;_k -->
<g id="edge17" class="edge">
<title>f&#45;&gt;_k</title>
<path fill="none" stroke="#000000" d="M209.123,-19C301.5547,-19 393.9863,-19 486.418,-19"/>
<polygon fill="#000000" stroke="#000000" points="486.5219,-22.5001 496.5218,-19 486.5218,-15.5001 486.5219,-22.5001"/>
</g>
<!-- g&#45;&gt;stop -->
<g id="edge16" class="edge">
<title>g&#45;&gt;stop</title>
<path fill="none" stroke="#000000" d="M381.2383,-93C389.5378,-93 397.8374,-93 406.1369,-93"/>
<polygon fill="#000000" stroke="#000000" points="406.2605,-96.5001 416.2605,-93 406.2605,-89.5001 406.2605,-96.5001"/>
</g>
</g>
</svg>
