<?xml version="1.0" encoding="UTF-8" standalone="no"?>
<!DOCTYPE svg PUBLIC "-//W3C//DTD SVG 1.1//EN"
 "http://www.w3.org/Graphics/SVG/1.1/DTD/svg11.dtd">
<!-- Generated by graphviz version 2.40.1 (20161225.0304)
 -->
<!-- Title: G Pages: 1 -->
<svg width="626pt" height="510pt"
 viewBox="0.00 0.00 625.50 510.00" xmlns="http://www.w3.org/2000/svg" xmlns:xlink="http://www.w3.org/1999/xlink">
<g id="graph0" class="graph" transform="scale(1 1) rotate(0) translate(4 506)">
<title>G</title>
<polygon fill="#ffffff" stroke="transparent" points="-4,4 -4,-506 621.5,-506 621.5,4 -4,4"/>
<!-- start -->
<g id="node1" class="node">
<title>start</title>
<ellipse fill="none" stroke="#000000" cx="233.5" cy="-484" rx="27" ry="18"/>
<text text-anchor="middle" x="233.5" y="-480.3" font-family="Times,serif" font-size="14.00" fill="#000000">start</text>
</g>
<!-- a -->
<g id="node7" class="node">
<title>a</title>
<polygon fill="none" stroke="#000000" points="293,-429 174,-429 174,-393 293,-393 293,-429"/>
<text text-anchor="middle" x="233.5" y="-407.3" font-family="Times,serif" font-size="14.00" fill="#000000">Get date from user</text>
</g>
<!-- start&#45;&gt;a -->
<g id="edge1" class="edge">
<title>start&#45;&gt;a</title>
<path fill="none" stroke="#000000" d="M233.5,-465.9551C233.5,-457.8828 233.5,-448.1764 233.5,-439.1817"/>
<polygon fill="#000000" stroke="#000000" points="237.0001,-439.0903 233.5,-429.0904 230.0001,-439.0904 237.0001,-439.0903"/>
</g>
<!-- stop -->
<g id="node2" class="node">
<title>stop</title>
<ellipse fill="none" stroke="#000000" cx="590.5" cy="-18" rx="27" ry="18"/>
<text text-anchor="middle" x="590.5" y="-14.3" font-family="Times,serif" font-size="14.00" fill="#000000">stop</text>
</g>
<!-- _a -->
<g id="node3" class="node">
<title>_a</title>
<ellipse fill="#000000" stroke="#000000" cx="590.5" cy="-411" rx="1.8" ry="1.8"/>
</g>
<!-- _b -->
<g id="node4" class="node">
<title>_b</title>
<ellipse fill="#000000" stroke="#000000" cx="590.5" cy="-324" rx="1.8" ry="1.8"/>
</g>
<!-- _a&#45;&gt;_b -->
<g id="edge7" class="edge">
<title>_a&#45;&gt;_b</title>
<path fill="none" stroke="#000000" d="M590.5,-409.1829C590.5,-399.8509 590.5,-356.9337 590.5,-335.8107"/>
<polygon fill="#000000" stroke="#000000" points="594.0001,-335.8071 590.5,-325.8071 587.0001,-335.8072 594.0001,-335.8071"/>
</g>
<!-- _c -->
<g id="node5" class="node">
<title>_c</title>
<ellipse fill="#000000" stroke="#000000" cx="590.5" cy="-237" rx="1.8" ry="1.8"/>
</g>
<!-- _b&#45;&gt;_c -->
<g id="edge8" class="edge">
<title>_b&#45;&gt;_c</title>
<path fill="none" stroke="#000000" d="M590.5,-322.1829C590.5,-312.8509 590.5,-269.9337 590.5,-248.8107"/>
<polygon fill="#000000" stroke="#000000" points="594.0001,-248.8071 590.5,-238.8071 587.0001,-248.8072 594.0001,-248.8071"/>
</g>
<!-- _d -->
<g id="node6" class="node">
<title>_d</title>
<ellipse fill="#000000" stroke="#000000" cx="590.5" cy="-91" rx="1.8" ry="1.8"/>
</g>
<!-- _c&#45;&gt;_d -->
<g id="edge9" class="edge">
<title>_c&#45;&gt;_d</title>
<path fill="none" stroke="#000000" d="M590.5,-234.9361C590.5,-220.6218 590.5,-135.7457 590.5,-103.4577"/>
<polygon fill="#000000" stroke="#000000" points="594.0001,-103.1987 590.5,-93.1987 587.0001,-103.1988 594.0001,-103.1987"/>
</g>
<!-- _d&#45;&gt;stop -->
<g id="edge10" class="edge">
<title>_d&#45;&gt;stop</title>
<path fill="none" stroke="#000000" d="M590.5,-89.1955C590.5,-83.2317 590.5,-63.5578 590.5,-46.3992"/>
<polygon fill="#000000" stroke="#000000" points="594.0001,-46.1857 590.5,-36.1857 587.0001,-46.1857 594.0001,-46.1857"/>
</g>
<!-- a&#45;&gt;_a -->
<g id="edge15" class="edge">
<title>a&#45;&gt;_a</title>
<path fill="none" stroke="#000000" d="M293.2538,-411C379.5989,-411 533.7878,-411 578.2121,-411"/>
<polygon fill="#000000" stroke="#000000" points="578.2784,-414.5001 588.2783,-411 578.2783,-407.5001 578.2784,-414.5001"/>
<text text-anchor="middle" x="440.85" y="-417.8" font-family="Times,serif" font-size="14.00" fill="#000000">If user want to return to main menu</text>
</g>
<!-- a&#45;&gt;a -->
<g id="edge19" class="edge">
<title>a:sw&#45;&gt;a:nw</title>
<path fill="none" stroke="#000000" d="M173.5,-393C168,-384 156,-384 156,-411 156,-427.0313 160.2305,-433.5439 164.819,-434.3058"/>
<polygon fill="#000000" stroke="#000000" points="166.7928,-437.2015 173.5,-429 163.1422,-431.2287 166.7928,-437.2015"/>
<text text-anchor="middle" x="79" y="-407.3" font-family="Times,serif" font-size="14.00" fill="#000000">If user enter invalid input &#160;&#160;&#160;</text>
</g>
<!-- b -->
<g id="node8" class="node">
<title>b</title>
<polygon fill="none" stroke="#000000" points="294.5,-342 172.5,-342 172.5,-306 294.5,-306 294.5,-342"/>
<text text-anchor="middle" x="233.5" y="-320.3" font-family="Times,serif" font-size="14.00" fill="#000000">Get time from user</text>
</g>
<!-- a&#45;&gt;b -->
<g id="edge2" class="edge">
<title>a&#45;&gt;b</title>
<path fill="none" stroke="#000000" d="M233.5,-392.9735C233.5,-381.1918 233.5,-365.5607 233.5,-352.1581"/>
<polygon fill="#000000" stroke="#000000" points="237.0001,-352.0033 233.5,-342.0034 230.0001,-352.0034 237.0001,-352.0033"/>
</g>
<!-- a&#45;&gt;b -->
<g id="edge12" class="edge">
<title>a&#45;&gt;b</title>
<path fill="none" stroke="#000000" d="M243.3069,-382.7728C244.8462,-375.3955 245.6096,-367.4285 244.5,-360 243.6118,-354.0535 241.9413,-347.7317 240.1656,-342.0722"/>
<polygon fill="#000000" stroke="#000000" points="239.857,-382.1328 240.7283,-392.6917 246.6318,-383.8941 239.857,-382.1328"/>
<text text-anchor="middle" x="352.5" y="-363.8" font-family="Times,serif" font-size="14.00" fill="#000000"> &#160;&#160;&#160;If user want to back to previous step</text>
</g>
<!-- b&#45;&gt;_b -->
<g id="edge16" class="edge">
<title>b&#45;&gt;_b</title>
<path fill="none" stroke="#000000" d="M294.8705,-324C381.4046,-324 533.6924,-324 578.0504,-324"/>
<polygon fill="#000000" stroke="#000000" points="578.3014,-327.5001 588.3013,-324 578.3013,-320.5001 578.3014,-327.5001"/>
<text text-anchor="middle" x="441.6" y="-330.8" font-family="Times,serif" font-size="14.00" fill="#000000">If user want to return to main menu</text>
</g>
<!-- b&#45;&gt;b -->
<g id="edge20" class="edge">
<title>b:sw&#45;&gt;b:nw</title>
<path fill="none" stroke="#000000" d="M172.5,-306C166.5,-295.5 154.5,-295.5 154.5,-324 154.5,-342.2578 159.4248,-348.8192 164.542,-348.4166"/>
<polygon fill="#000000" stroke="#000000" points="166.9122,-351.0015 172.5,-342 162.5184,-345.5523 166.9122,-351.0015"/>
<text text-anchor="middle" x="77.5" y="-320.3" font-family="Times,serif" font-size="14.00" fill="#000000">If user enter invalid input &#160;&#160;&#160;</text>
</g>
<!-- c -->
<g id="node9" class="node">
<title>c</title>
<polygon fill="none" stroke="#000000" points="295,-255 172,-255 172,-219 295,-219 295,-255"/>
<text text-anchor="middle" x="233.5" y="-233.3" font-family="Times,serif" font-size="14.00" fill="#000000">Get ferry from user</text>
</g>
<!-- b&#45;&gt;c -->
<g id="edge3" class="edge">
<title>b&#45;&gt;c</title>
<path fill="none" stroke="#000000" d="M233.5,-305.9735C233.5,-294.1918 233.5,-278.5607 233.5,-265.1581"/>
<polygon fill="#000000" stroke="#000000" points="237.0001,-265.0033 233.5,-255.0034 230.0001,-265.0034 237.0001,-265.0033"/>
</g>
<!-- b&#45;&gt;c -->
<g id="edge13" class="edge">
<title>b&#45;&gt;c</title>
<path fill="none" stroke="#000000" d="M243.3069,-295.7728C244.8462,-288.3955 245.6096,-280.4285 244.5,-273 243.6118,-267.0535 241.9413,-260.7317 240.1656,-255.0722"/>
<polygon fill="#000000" stroke="#000000" points="239.857,-295.1328 240.7283,-305.6917 246.6318,-296.8941 239.857,-295.1328"/>
<text text-anchor="middle" x="352.5" y="-276.8" font-family="Times,serif" font-size="14.00" fill="#000000"> &#160;&#160;&#160;If user want to back to previous step</text>
</g>
<!-- c&#45;&gt;_c -->
<g id="edge17" class="edge">
<title>c&#45;&gt;_c</title>
<path fill="none" stroke="#000000" d="M295.2771,-237C381.9014,-237 533.8343,-237 578.082,-237"/>
<polygon fill="#000000" stroke="#000000" points="578.3071,-240.5001 588.3071,-237 578.307,-233.5001 578.3071,-240.5001"/>
<text text-anchor="middle" x="441.85" y="-243.8" font-family="Times,serif" font-size="14.00" fill="#000000">If user want to return to main menu</text>
</g>
<!-- c&#45;&gt;c -->
<g id="edge21" class="edge">
<title>c:sw&#45;&gt;c:nw</title>
<path fill="none" stroke="#000000" d="M171.5,-219C166,-210 154,-210 154,-237 154,-253.0313 158.2305,-259.5439 162.819,-260.3058"/>
<polygon fill="#000000" stroke="#000000" points="164.7928,-263.2015 171.5,-255 161.1422,-257.2287 164.7928,-263.2015"/>
<text text-anchor="middle" x="77" y="-233.3" font-family="Times,serif" font-size="14.00" fill="#000000">If user enter invalid input &#160;&#160;&#160;</text>
</g>
<!-- d -->
<g id="node10" class="node">
<title>d</title>
<polygon fill="none" stroke="#000000" points="312,-182 155,-182 155,-146 312,-146 312,-182"/>
<text text-anchor="middle" x="233.5" y="-160.3" font-family="Times,serif" font-size="14.00" fill="#000000">Print seating arrangement</text>
</g>
<!-- c&#45;&gt;d -->
<g id="edge4" class="edge">
<title>c&#45;&gt;d</title>
<path fill="none" stroke="#000000" d="M233.5,-218.9551C233.5,-210.8828 233.5,-201.1764 233.5,-192.1817"/>
<polygon fill="#000000" stroke="#000000" points="237.0001,-192.0903 233.5,-182.0904 230.0001,-192.0904 237.0001,-192.0903"/>
</g>
<!-- e -->
<g id="node11" class="node">
<title>e</title>
<polygon fill="none" stroke="#000000" points="292.5,-109 174.5,-109 174.5,-73 292.5,-73 292.5,-109"/>
<text text-anchor="middle" x="233.5" y="-87.3" font-family="Times,serif" font-size="14.00" fill="#000000">Get seat from user</text>
</g>
<!-- c&#45;&gt;e -->
<g id="edge14" class="edge">
<title>c&#45;&gt;e</title>
<path fill="none" stroke="#000000" d="M288.8792,-213.593C301.4889,-205.5105 313.2843,-195.0983 320.5,-182 328.2202,-167.9858 328.2202,-160.0142 320.5,-146 311.6191,-129.879 295.801,-117.8269 280.0655,-109.1792"/>
<polygon fill="#000000" stroke="#000000" points="286.8808,-210.7089 280.0655,-218.8208 290.4519,-216.7295 286.8808,-210.7089"/>
<text text-anchor="middle" x="433.5" y="-160.3" font-family="Times,serif" font-size="14.00" fill="#000000"> &#160;&#160;&#160;If user want to back to previous step</text>
</g>
<!-- d&#45;&gt;e -->
<g id="edge5" class="edge">
<title>d&#45;&gt;e</title>
<path fill="none" stroke="#000000" d="M233.5,-145.9551C233.5,-137.8828 233.5,-128.1764 233.5,-119.1817"/>
<polygon fill="#000000" stroke="#000000" points="237.0001,-119.0903 233.5,-109.0904 230.0001,-119.0904 237.0001,-119.0903"/>
</g>
<!-- e&#45;&gt;_d -->
<g id="edge18" class="edge">
<title>e&#45;&gt;_d</title>
<path fill="none" stroke="#000000" d="M292.852,-91C379.0996,-91 533.6467,-91 578.1809,-91"/>
<polygon fill="#000000" stroke="#000000" points="578.2726,-94.5001 588.2725,-91 578.2725,-87.5001 578.2726,-94.5001"/>
<text text-anchor="middle" x="440.6" y="-97.8" font-family="Times,serif" font-size="14.00" fill="#000000">If user want to return to main menu</text>
</g>
<!-- e&#45;&gt;e -->
<g id="edge22" class="edge">
<title>e:sw&#45;&gt;e:nw</title>
<path fill="none" stroke="#000000" d="M174.5,-73C168.5,-64 156.5,-64 156.5,-91 156.5,-107.4531 160.9561,-113.8801 165.7951,-114.3541"/>
<polygon fill="#000000" stroke="#000000" points="167.8159,-117.2203 174.5,-109 164.1485,-111.2578 167.8159,-117.2203"/>
<text text-anchor="middle" x="79.5" y="-87.3" font-family="Times,serif" font-size="14.00" fill="#000000">If user enter invalid input &#160;&#160;&#160;</text>
</g>
<!-- f -->
<g id="node12" class="node">
<title>f</title>
<polygon fill="none" stroke="#000000" points="280,-36 187,-36 187,0 280,0 280,-36"/>
<text text-anchor="middle" x="233.5" y="-14.3" font-family="Times,serif" font-size="14.00" fill="#000000">Print seat info</text>
</g>
<!-- e&#45;&gt;f -->
<g id="edge6" class="edge">
<title>e&#45;&gt;f</title>
<path fill="none" stroke="#000000" d="M227.5843,-72.9551C226.7858,-64.8828 226.5605,-55.1764 226.9083,-46.1817"/>
<polygon fill="#000000" stroke="#000000" points="230.408,-46.3007 227.5798,-36.0904 223.4235,-45.8359 230.408,-46.3007"/>
</g>
<!-- e&#45;&gt;f -->
<g id="edge11" class="edge">
<title>e&#45;&gt;f</title>
<path fill="none" stroke="#000000" d="M240.0898,-62.8688C240.4397,-53.8769 240.2165,-44.1687 239.4202,-36.0904"/>
<polygon fill="#000000" stroke="#000000" points="236.5904,-62.7439 239.4157,-72.9551 243.5748,-63.2107 236.5904,-62.7439"/>
</g>
</g>
</svg>
