<?xml version="1.0" encoding="UTF-8" standalone="no"?>
<!DOCTYPE svg PUBLIC "-//W3C//DTD SVG 1.1//EN"
 "http://www.w3.org/Graphics/SVG/1.1/DTD/svg11.dtd">
<!-- Generated by graphviz version 2.40.1 (20161225.0304)
 -->
<!-- Title: G Pages: 1 -->
<svg width="632pt" height="496pt"
 viewBox="0.00 0.00 631.50 496.00" xmlns="http://www.w3.org/2000/svg" xmlns:xlink="http://www.w3.org/1999/xlink">
<g id="graph0" class="graph" transform="scale(1 1) rotate(0) translate(4 492)">
<title>G</title>
<polygon fill="#ffffff" stroke="transparent" points="-4,4 -4,-492 627.5,-492 627.5,4 -4,4"/>
<!-- start -->
<g id="node1" class="node">
<title>start</title>
<ellipse fill="none" stroke="#000000" cx="261.5" cy="-470" rx="27" ry="18"/>
<text text-anchor="middle" x="261.5" y="-466.3" font-family="Times,serif" font-size="14.00" fill="#000000">start</text>
</g>
<!-- a -->
<g id="node7" class="node">
<title>a</title>
<polygon fill="none" stroke="#000000" points="321,-415 202,-415 202,-379 321,-379 321,-415"/>
<text text-anchor="middle" x="261.5" y="-393.3" font-family="Times,serif" font-size="14.00" fill="#000000">Get date from user</text>
</g>
<!-- start&#45;&gt;a -->
<g id="edge1" class="edge">
<title>start&#45;&gt;a</title>
<path fill="none" stroke="#000000" d="M261.5,-451.9551C261.5,-443.8828 261.5,-434.1764 261.5,-425.1817"/>
<polygon fill="#000000" stroke="#000000" points="265.0001,-425.0903 261.5,-415.0904 258.0001,-425.0904 265.0001,-425.0903"/>
</g>
<!-- stop -->
<g id="node2" class="node">
<title>stop</title>
<ellipse fill="none" stroke="#000000" cx="596.5" cy="-18" rx="27" ry="18"/>
<text text-anchor="middle" x="596.5" y="-14.3" font-family="Times,serif" font-size="14.00" fill="#000000">stop</text>
</g>
<!-- _a -->
<g id="node3" class="node">
<title>_a</title>
<ellipse fill="#000000" stroke="#000000" cx="596.5" cy="-397" rx="1.8" ry="1.8"/>
</g>
<!-- _b -->
<g id="node4" class="node">
<title>_b</title>
<ellipse fill="#000000" stroke="#000000" cx="596.5" cy="-310" rx="1.8" ry="1.8"/>
</g>
<!-- _a&#45;&gt;_b -->
<g id="edge6" class="edge">
<title>_a&#45;&gt;_b</title>
<path fill="none" stroke="#000000" d="M596.5,-395.1829C596.5,-385.8509 596.5,-342.9337 596.5,-321.8107"/>
<polygon fill="#000000" stroke="#000000" points="600.0001,-321.8071 596.5,-311.8071 593.0001,-321.8072 600.0001,-321.8071"/>
</g>
<!-- _c -->
<g id="node5" class="node">
<title>_c</title>
<ellipse fill="#000000" stroke="#000000" cx="596.5" cy="-164" rx="1.8" ry="1.8"/>
</g>
<!-- _b&#45;&gt;_c -->
<g id="edge7" class="edge">
<title>_b&#45;&gt;_c</title>
<path fill="none" stroke="#000000" d="M596.5,-307.9361C596.5,-293.6218 596.5,-208.7457 596.5,-176.4577"/>
<polygon fill="#000000" stroke="#000000" points="600.0001,-176.1987 596.5,-166.1987 593.0001,-176.1988 600.0001,-176.1987"/>
</g>
<!-- _d -->
<g id="node6" class="node">
<title>_d</title>
<ellipse fill="#000000" stroke="#000000" cx="596.5" cy="-91" rx="1.8" ry="1.8"/>
</g>
<!-- _c&#45;&gt;_d -->
<g id="edge8" class="edge">
<title>_c&#45;&gt;_d</title>
<path fill="none" stroke="#000000" d="M596.5,-162.1955C596.5,-154.1782 596.5,-121.3832 596.5,-103.2313"/>
<polygon fill="#000000" stroke="#000000" points="600.0001,-103.0095 596.5,-93.0095 593.0001,-103.0095 600.0001,-103.0095"/>
</g>
<!-- _d&#45;&gt;stop -->
<g id="edge9" class="edge">
<title>_d&#45;&gt;stop</title>
<path fill="none" stroke="#000000" d="M596.5,-89.1955C596.5,-83.2317 596.5,-63.5578 596.5,-46.3992"/>
<polygon fill="#000000" stroke="#000000" points="600.0001,-46.1857 596.5,-36.1857 593.0001,-46.1857 600.0001,-46.1857"/>
</g>
<!-- a&#45;&gt;_a -->
<g id="edge12" class="edge">
<title>a&#45;&gt;_a</title>
<path fill="none" stroke="#000000" d="M321.0053,-397C402.2646,-397 542.6382,-397 584.4275,-397"/>
<polygon fill="#000000" stroke="#000000" points="584.4637,-400.5001 594.4637,-397 584.4636,-393.5001 584.4637,-400.5001"/>
<text text-anchor="middle" x="457.85" y="-403.8" font-family="Times,serif" font-size="14.00" fill="#000000">If user want to return to main menu</text>
</g>
<!-- a&#45;&gt;a -->
<g id="edge16" class="edge">
<title>a:sw&#45;&gt;a:nw</title>
<path fill="none" stroke="#000000" d="M201.5,-379C196,-370 184,-370 184,-397 184,-413.0313 188.2305,-419.5439 192.819,-420.3058"/>
<polygon fill="#000000" stroke="#000000" points="194.7928,-423.2015 201.5,-415 191.1422,-417.2287 194.7928,-423.2015"/>
<text text-anchor="middle" x="107" y="-393.3" font-family="Times,serif" font-size="14.00" fill="#000000">If user enter invalid input &#160;&#160;&#160;</text>
</g>
<!-- b -->
<g id="node8" class="node">
<title>b</title>
<polygon fill="none" stroke="#000000" points="325,-328 198,-328 198,-292 325,-292 325,-328"/>
<text text-anchor="middle" x="261.5" y="-306.3" font-family="Times,serif" font-size="14.00" fill="#000000">Get name from user</text>
</g>
<!-- a&#45;&gt;b -->
<g id="edge2" class="edge">
<title>a&#45;&gt;b</title>
<path fill="none" stroke="#000000" d="M261.5,-378.9735C261.5,-367.1918 261.5,-351.5607 261.5,-338.1581"/>
<polygon fill="#000000" stroke="#000000" points="265.0001,-338.0033 261.5,-328.0034 258.0001,-338.0034 265.0001,-338.0033"/>
</g>
<!-- a&#45;&gt;b -->
<g id="edge10" class="edge">
<title>a&#45;&gt;b</title>
<path fill="none" stroke="#000000" d="M271.3069,-368.7728C272.8462,-361.3955 273.6096,-353.4285 272.5,-346 271.6118,-340.0535 269.9413,-333.7317 268.1656,-328.0722"/>
<polygon fill="#000000" stroke="#000000" points="267.857,-368.1328 268.7283,-378.6917 274.6318,-369.8941 267.857,-368.1328"/>
<text text-anchor="middle" x="379" y="-349.8" font-family="Times,serif" font-size="14.00" fill="#000000"> &#160;&#160;&#160;If user want to back to preview step</text>
</g>
<!-- b&#45;&gt;_b -->
<g id="edge13" class="edge">
<title>b&#45;&gt;_b</title>
<path fill="none" stroke="#000000" d="M325.2995,-310C407.1672,-310 543.5247,-310 584.4995,-310"/>
<polygon fill="#000000" stroke="#000000" points="584.5222,-313.5001 594.5221,-310 584.5221,-306.5001 584.5222,-313.5001"/>
<text text-anchor="middle" x="459.85" y="-316.8" font-family="Times,serif" font-size="14.00" fill="#000000">If user want to return to main menu</text>
</g>
<!-- b&#45;&gt;b -->
<g id="edge17" class="edge">
<title>b:sw&#45;&gt;b:nw</title>
<path fill="none" stroke="#000000" d="M197.5,-292C192,-283 180,-283 180,-310 180,-326.0313 184.2305,-332.5439 188.819,-333.3058"/>
<polygon fill="#000000" stroke="#000000" points="190.7928,-336.2015 197.5,-328 187.1422,-330.2287 190.7928,-336.2015"/>
<text text-anchor="middle" x="103" y="-306.3" font-family="Times,serif" font-size="14.00" fill="#000000">If user enter invalid input &#160;&#160;&#160;</text>
</g>
<!-- c -->
<g id="node9" class="node">
<title>c</title>
<polygon fill="none" stroke="#000000" points="321.5,-255 201.5,-255 201.5,-219 321.5,-219 321.5,-255"/>
<text text-anchor="middle" x="261.5" y="-233.3" font-family="Times,serif" font-size="14.00" fill="#000000">Print search results</text>
</g>
<!-- b&#45;&gt;c -->
<g id="edge3" class="edge">
<title>b&#45;&gt;c</title>
<path fill="none" stroke="#000000" d="M261.5,-291.9551C261.5,-283.8828 261.5,-274.1764 261.5,-265.1817"/>
<polygon fill="#000000" stroke="#000000" points="265.0001,-265.0903 261.5,-255.0904 258.0001,-265.0904 265.0001,-265.0903"/>
</g>
<!-- d -->
<g id="node10" class="node">
<title>d</title>
<polygon fill="none" stroke="#000000" points="351,-182 172,-182 172,-146 351,-146 351,-182"/>
<text text-anchor="middle" x="261.5" y="-160.3" font-family="Times,serif" font-size="14.00" fill="#000000">Get result selection from user</text>
</g>
<!-- b&#45;&gt;d -->
<g id="edge11" class="edge">
<title>b&#45;&gt;d</title>
<path fill="none" stroke="#000000" d="M303.9231,-285.8482C314.565,-277.5455 324.6194,-267.2077 330.5,-255 337.4438,-240.5853 337.4438,-233.4147 330.5,-219 323.1204,-203.6805 309.168,-191.3057 295.7301,-182.2021"/>
<polygon fill="#000000" stroke="#000000" points="301.7651,-283.0898 295.7301,-291.7979 305.8783,-288.7539 301.7651,-283.0898"/>
<text text-anchor="middle" x="441" y="-233.3" font-family="Times,serif" font-size="14.00" fill="#000000"> &#160;&#160;&#160;If user want to back to preview step</text>
</g>
<!-- c&#45;&gt;d -->
<g id="edge4" class="edge">
<title>c&#45;&gt;d</title>
<path fill="none" stroke="#000000" d="M261.5,-218.9551C261.5,-210.8828 261.5,-201.1764 261.5,-192.1817"/>
<polygon fill="#000000" stroke="#000000" points="265.0001,-192.0903 261.5,-182.0904 258.0001,-192.0904 265.0001,-192.0903"/>
</g>
<!-- d&#45;&gt;_c -->
<g id="edge14" class="edge">
<title>d&#45;&gt;_c</title>
<path fill="none" stroke="#000000" d="M351.2739,-164C433.0771,-164 546.6606,-164 584.0344,-164"/>
<polygon fill="#000000" stroke="#000000" points="584.4017,-167.5001 594.4017,-164 584.4016,-160.5001 584.4017,-167.5001"/>
<text text-anchor="middle" x="472.85" y="-170.8" font-family="Times,serif" font-size="14.00" fill="#000000">If user want to return to main menu</text>
</g>
<!-- d&#45;&gt;d -->
<g id="edge18" class="edge">
<title>d:sw&#45;&gt;d:nw</title>
<path fill="none" stroke="#000000" d="M171.5,-146C166,-137 154,-137 154,-164 154,-180.0313 158.2305,-186.5439 162.819,-187.3058"/>
<polygon fill="#000000" stroke="#000000" points="164.7928,-190.2015 171.5,-182 161.1422,-184.2287 164.7928,-190.2015"/>
<text text-anchor="middle" x="77" y="-160.3" font-family="Times,serif" font-size="14.00" fill="#000000">If user enter invalid input &#160;&#160;&#160;</text>
</g>
<!-- e -->
<g id="node11" class="node">
<title>e</title>
<polygon fill="none" stroke="#000000" points="300,-109 223,-109 223,-73 300,-73 300,-109"/>
<text text-anchor="middle" x="261.5" y="-87.3" font-family="Times,serif" font-size="14.00" fill="#000000">Print ticket</text>
</g>
<!-- d&#45;&gt;e -->
<g id="edge5" class="edge">
<title>d&#45;&gt;e</title>
<path fill="none" stroke="#000000" d="M261.5,-145.9551C261.5,-137.8828 261.5,-128.1764 261.5,-119.1817"/>
<polygon fill="#000000" stroke="#000000" points="265.0001,-119.0903 261.5,-109.0904 258.0001,-119.0904 265.0001,-119.0903"/>
</g>
<!-- e&#45;&gt;_d -->
<g id="edge15" class="edge">
<title>e&#45;&gt;_d</title>
<path fill="none" stroke="#000000" d="M300.1035,-91C394.8731,-91 489.6427,-91 584.4124,-91"/>
<polygon fill="#000000" stroke="#000000" points="584.4739,-94.5001 594.4739,-91 584.4738,-87.5001 584.4739,-94.5001"/>
</g>
</g>
</svg>
