<?xml version="1.0" encoding="UTF-8" standalone="no"?>
<!DOCTYPE svg PUBLIC "-//W3C//DTD SVG 1.1//EN"
 "http://www.w3.org/Graphics/SVG/1.1/DTD/svg11.dtd">
<!-- Generated by graphviz version 2.40.1 (20161225.0304)
 -->
<!-- Title: G Pages: 1 -->
<svg width="638pt" height="844pt"
 viewBox="0.00 0.00 637.50 844.00" xmlns="http://www.w3.org/2000/svg" xmlns:xlink="http://www.w3.org/1999/xlink">
<g id="graph0" class="graph" transform="scale(1 1) rotate(0) translate(4 840)">
<title>G</title>
<polygon fill="#ffffff" stroke="transparent" points="-4,4 -4,-840 633.5,-840 633.5,4 -4,4"/>
<!-- start -->
<g id="node1" class="node">
<title>start</title>
<ellipse fill="none" stroke="#000000" cx="279.5" cy="-818" rx="27" ry="18"/>
<text text-anchor="middle" x="279.5" y="-814.3" font-family="Times,serif" font-size="14.00" fill="#000000">start</text>
</g>
<!-- a -->
<g id="node11" class="node">
<title>a</title>
<polygon fill="none" stroke="#000000" points="342,-763 217,-763 217,-727 342,-727 342,-763"/>
<text text-anchor="middle" x="279.5" y="-741.3" font-family="Times,serif" font-size="14.00" fill="#000000">Get route from user</text>
</g>
<!-- start&#45;&gt;a -->
<g id="edge1" class="edge">
<title>start&#45;&gt;a</title>
<path fill="none" stroke="#000000" d="M279.5,-799.9551C279.5,-791.8828 279.5,-782.1764 279.5,-773.1817"/>
<polygon fill="#000000" stroke="#000000" points="283.0001,-773.0903 279.5,-763.0904 276.0001,-773.0904 283.0001,-773.0903"/>
</g>
<!-- stop -->
<g id="node2" class="node">
<title>stop</title>
<ellipse fill="none" stroke="#000000" cx="602.5" cy="-18" rx="27" ry="18"/>
<text text-anchor="middle" x="602.5" y="-14.3" font-family="Times,serif" font-size="14.00" fill="#000000">stop</text>
</g>
<!-- _a -->
<g id="node3" class="node">
<title>_a</title>
<ellipse fill="#000000" stroke="#000000" cx="602.5" cy="-745" rx="1.8" ry="1.8"/>
</g>
<!-- _b -->
<g id="node4" class="node">
<title>_b</title>
<ellipse fill="#000000" stroke="#000000" cx="602.5" cy="-658" rx="1.8" ry="1.8"/>
</g>
<!-- _a&#45;&gt;_b -->
<g id="edge10" class="edge">
<title>_a&#45;&gt;_b</title>
<path fill="none" stroke="#000000" d="M602.5,-743.1829C602.5,-733.8509 602.5,-690.9337 602.5,-669.8107"/>
<polygon fill="#000000" stroke="#000000" points="606.0001,-669.8071 602.5,-659.8071 599.0001,-669.8072 606.0001,-669.8071"/>
</g>
<!-- _c -->
<g id="node5" class="node">
<title>_c</title>
<ellipse fill="#000000" stroke="#000000" cx="602.5" cy="-571" rx="1.8" ry="1.8"/>
</g>
<!-- _b&#45;&gt;_c -->
<g id="edge11" class="edge">
<title>_b&#45;&gt;_c</title>
<path fill="none" stroke="#000000" d="M602.5,-656.1829C602.5,-646.8509 602.5,-603.9337 602.5,-582.8107"/>
<polygon fill="#000000" stroke="#000000" points="606.0001,-582.8071 602.5,-572.8071 599.0001,-582.8072 606.0001,-582.8071"/>
</g>
<!-- _d -->
<g id="node6" class="node">
<title>_d</title>
<ellipse fill="#000000" stroke="#000000" cx="602.5" cy="-484" rx="1.8" ry="1.8"/>
</g>
<!-- _c&#45;&gt;_d -->
<g id="edge12" class="edge">
<title>_c&#45;&gt;_d</title>
<path fill="none" stroke="#000000" d="M602.5,-569.1829C602.5,-559.8509 602.5,-516.9337 602.5,-495.8107"/>
<polygon fill="#000000" stroke="#000000" points="606.0001,-495.8071 602.5,-485.8071 599.0001,-495.8072 606.0001,-495.8071"/>
</g>
<!-- _e -->
<g id="node7" class="node">
<title>_e</title>
<ellipse fill="#000000" stroke="#000000" cx="602.5" cy="-397" rx="1.8" ry="1.8"/>
</g>
<!-- _d&#45;&gt;_e -->
<g id="edge13" class="edge">
<title>_d&#45;&gt;_e</title>
<path fill="none" stroke="#000000" d="M602.5,-482.1829C602.5,-472.8509 602.5,-429.9337 602.5,-408.8107"/>
<polygon fill="#000000" stroke="#000000" points="606.0001,-408.8071 602.5,-398.8071 599.0001,-408.8072 606.0001,-408.8071"/>
</g>
<!-- _f -->
<g id="node8" class="node">
<title>_f</title>
<ellipse fill="#000000" stroke="#000000" cx="602.5" cy="-310" rx="1.8" ry="1.8"/>
</g>
<!-- _e&#45;&gt;_f -->
<g id="edge14" class="edge">
<title>_e&#45;&gt;_f</title>
<path fill="none" stroke="#000000" d="M602.5,-395.1829C602.5,-385.8509 602.5,-342.9337 602.5,-321.8107"/>
<polygon fill="#000000" stroke="#000000" points="606.0001,-321.8071 602.5,-311.8071 599.0001,-321.8072 606.0001,-321.8071"/>
</g>
<!-- _g -->
<g id="node9" class="node">
<title>_g</title>
<ellipse fill="#000000" stroke="#000000" cx="602.5" cy="-164" rx="1.8" ry="1.8"/>
</g>
<!-- _f&#45;&gt;_g -->
<g id="edge15" class="edge">
<title>_f&#45;&gt;_g</title>
<path fill="none" stroke="#000000" d="M602.5,-307.9361C602.5,-293.6218 602.5,-208.7457 602.5,-176.4577"/>
<polygon fill="#000000" stroke="#000000" points="606.0001,-176.1987 602.5,-166.1987 599.0001,-176.1988 606.0001,-176.1987"/>
</g>
<!-- _h -->
<g id="node10" class="node">
<title>_h</title>
<ellipse fill="#000000" stroke="#000000" cx="602.5" cy="-91" rx="1.8" ry="1.8"/>
</g>
<!-- _g&#45;&gt;_h -->
<g id="edge16" class="edge">
<title>_g&#45;&gt;_h</title>
<path fill="none" stroke="#000000" d="M602.5,-162.1955C602.5,-154.1782 602.5,-121.3832 602.5,-103.2313"/>
<polygon fill="#000000" stroke="#000000" points="606.0001,-103.0095 602.5,-93.0095 599.0001,-103.0095 606.0001,-103.0095"/>
</g>
<!-- _h&#45;&gt;stop -->
<g id="edge17" class="edge">
<title>_h&#45;&gt;stop</title>
<path fill="none" stroke="#000000" d="M602.5,-89.1955C602.5,-83.2317 602.5,-63.5578 602.5,-46.3992"/>
<polygon fill="#000000" stroke="#000000" points="606.0001,-46.1857 602.5,-36.1857 599.0001,-46.1857 606.0001,-46.1857"/>
</g>
<!-- a&#45;&gt;_a -->
<g id="edge24" class="edge">
<title>a&#45;&gt;_a</title>
<path fill="none" stroke="#000000" d="M342.1606,-745C420.9327,-745 550.6783,-745 590.5028,-745"/>
<polygon fill="#000000" stroke="#000000" points="590.6082,-748.5001 600.6082,-745 590.6082,-741.5001 590.6082,-748.5001"/>
<text text-anchor="middle" x="471.35" y="-751.8" font-family="Times,serif" font-size="14.00" fill="#000000">If user want to return to main menu</text>
</g>
<!-- a&#45;&gt;a -->
<g id="edge32" class="edge">
<title>a:sw&#45;&gt;a:nw</title>
<path fill="none" stroke="#000000" d="M217.5,-727C211,-718 199,-718 199,-745 199,-761.875 203.6875,-768.2031 208.79,-768.3789"/>
<polygon fill="#000000" stroke="#000000" points="210.8307,-771.2323 217.5,-763 207.1526,-765.2765 210.8307,-771.2323"/>
<text text-anchor="middle" x="122" y="-741.3" font-family="Times,serif" font-size="14.00" fill="#000000">If user enter invalid input &#160;&#160;&#160;</text>
</g>
<!-- b -->
<g id="node12" class="node">
<title>b</title>
<polygon fill="none" stroke="#000000" points="339,-676 220,-676 220,-640 339,-640 339,-676"/>
<text text-anchor="middle" x="279.5" y="-654.3" font-family="Times,serif" font-size="14.00" fill="#000000">Get date from user</text>
</g>
<!-- a&#45;&gt;b -->
<g id="edge2" class="edge">
<title>a&#45;&gt;b</title>
<path fill="none" stroke="#000000" d="M279.5,-726.9735C279.5,-715.1918 279.5,-699.5607 279.5,-686.1581"/>
<polygon fill="#000000" stroke="#000000" points="283.0001,-686.0033 279.5,-676.0034 276.0001,-686.0034 283.0001,-686.0033"/>
</g>
<!-- a&#45;&gt;b -->
<g id="edge18" class="edge">
<title>a&#45;&gt;b</title>
<path fill="none" stroke="#000000" d="M289.3069,-716.7728C290.8462,-709.3955 291.6096,-701.4285 290.5,-694 289.6118,-688.0535 287.9413,-681.7317 286.1656,-676.0722"/>
<polygon fill="#000000" stroke="#000000" points="285.857,-716.1328 286.7283,-726.6917 292.6318,-717.8941 285.857,-716.1328"/>
<text text-anchor="middle" x="398.5" y="-697.8" font-family="Times,serif" font-size="14.00" fill="#000000"> &#160;&#160;&#160;If user want to back to previous step</text>
</g>
<!-- b&#45;&gt;_b -->
<g id="edge25" class="edge">
<title>b&#45;&gt;_b</title>
<path fill="none" stroke="#000000" d="M339.1196,-658C417.5583,-658 550.191,-658 590.5163,-658"/>
<polygon fill="#000000" stroke="#000000" points="590.5675,-661.5001 600.5675,-658 590.5674,-654.5001 590.5675,-661.5001"/>
<text text-anchor="middle" x="469.85" y="-664.8" font-family="Times,serif" font-size="14.00" fill="#000000">If user want to return to main menu</text>
</g>
<!-- b&#45;&gt;b -->
<g id="edge33" class="edge">
<title>b:sw&#45;&gt;b:nw</title>
<path fill="none" stroke="#000000" d="M219.5,-640C214,-629.5 202,-629.5 202,-658 202,-675.8125 206.6875,-682.4922 211.5459,-682.4336"/>
<polygon fill="#000000" stroke="#000000" points="213.926,-685.0101 219.5,-676 209.5238,-679.5675 213.926,-685.0101"/>
<text text-anchor="middle" x="125" y="-654.3" font-family="Times,serif" font-size="14.00" fill="#000000">If user enter invalid input &#160;&#160;&#160;</text>
</g>
<!-- c -->
<g id="node13" class="node">
<title>c</title>
<polygon fill="none" stroke="#000000" points="340.5,-589 218.5,-589 218.5,-553 340.5,-553 340.5,-589"/>
<text text-anchor="middle" x="279.5" y="-567.3" font-family="Times,serif" font-size="14.00" fill="#000000">Get time from user</text>
</g>
<!-- b&#45;&gt;c -->
<g id="edge3" class="edge">
<title>b&#45;&gt;c</title>
<path fill="none" stroke="#000000" d="M279.5,-639.9735C279.5,-628.1918 279.5,-612.5607 279.5,-599.1581"/>
<polygon fill="#000000" stroke="#000000" points="283.0001,-599.0033 279.5,-589.0034 276.0001,-599.0034 283.0001,-599.0033"/>
</g>
<!-- b&#45;&gt;c -->
<g id="edge19" class="edge">
<title>b&#45;&gt;c</title>
<path fill="none" stroke="#000000" d="M289.3069,-629.7728C290.8462,-622.3955 291.6096,-614.4285 290.5,-607 289.6118,-601.0535 287.9413,-594.7317 286.1656,-589.0722"/>
<polygon fill="#000000" stroke="#000000" points="285.857,-629.1328 286.7283,-639.6917 292.6318,-630.8941 285.857,-629.1328"/>
<text text-anchor="middle" x="398.5" y="-610.8" font-family="Times,serif" font-size="14.00" fill="#000000"> &#160;&#160;&#160;If user want to back to previous step</text>
</g>
<!-- c&#45;&gt;_c -->
<g id="edge26" class="edge">
<title>c&#45;&gt;_c</title>
<path fill="none" stroke="#000000" d="M340.6336,-571C419.1631,-571 550.147,-571 590.3774,-571"/>
<polygon fill="#000000" stroke="#000000" points="590.5879,-574.5001 600.5879,-571 590.5879,-567.5001 590.5879,-574.5001"/>
<text text-anchor="middle" x="470.6" y="-577.8" font-family="Times,serif" font-size="14.00" fill="#000000">If user want to return to main menu</text>
</g>
<!-- c&#45;&gt;c -->
<g id="edge34" class="edge">
<title>c:sw&#45;&gt;c:nw</title>
<path fill="none" stroke="#000000" d="M218.5,-553C212.5,-542.5 200.5,-542.5 200.5,-571 200.5,-589.2578 205.4248,-595.8192 210.542,-595.4166"/>
<polygon fill="#000000" stroke="#000000" points="212.9122,-598.0015 218.5,-589 208.5184,-592.5523 212.9122,-598.0015"/>
<text text-anchor="middle" x="123.5" y="-567.3" font-family="Times,serif" font-size="14.00" fill="#000000">If user enter invalid input &#160;&#160;&#160;</text>
</g>
<!-- d -->
<g id="node14" class="node">
<title>d</title>
<polygon fill="none" stroke="#000000" points="387,-502 172,-502 172,-466 387,-466 387,-502"/>
<text text-anchor="middle" x="279.5" y="-480.3" font-family="Times,serif" font-size="14.00" fill="#000000">Get seat selection method from user</text>
</g>
<!-- c&#45;&gt;d -->
<g id="edge4" class="edge">
<title>c&#45;&gt;d</title>
<path fill="none" stroke="#000000" d="M279.5,-552.9735C279.5,-541.1918 279.5,-525.5607 279.5,-512.1581"/>
<polygon fill="#000000" stroke="#000000" points="283.0001,-512.0033 279.5,-502.0034 276.0001,-512.0034 283.0001,-512.0033"/>
</g>
<!-- c&#45;&gt;d -->
<g id="edge20" class="edge">
<title>c&#45;&gt;d</title>
<path fill="none" stroke="#000000" d="M289.3069,-542.7728C290.8462,-535.3955 291.6096,-527.4285 290.5,-520 289.6118,-514.0535 287.9413,-507.7317 286.1656,-502.0722"/>
<polygon fill="#000000" stroke="#000000" points="285.857,-542.1328 286.7283,-552.6917 292.6318,-543.8941 285.857,-542.1328"/>
<text text-anchor="middle" x="398.5" y="-523.8" font-family="Times,serif" font-size="14.00" fill="#000000"> &#160;&#160;&#160;If user want to back to previous step</text>
</g>
<!-- d&#45;&gt;_d -->
<g id="edge27" class="edge">
<title>d&#45;&gt;_d</title>
<path fill="none" stroke="#000000" d="M387.0543,-484C462.847,-484 556.5486,-484 589.9511,-484"/>
<polygon fill="#000000" stroke="#000000" points="590.3466,-487.5001 600.3466,-484 590.3466,-480.5001 590.3466,-487.5001"/>
<text text-anchor="middle" x="493.85" y="-490.8" font-family="Times,serif" font-size="14.00" fill="#000000">If user want to return to main menu</text>
</g>
<!-- d&#45;&gt;d -->
<g id="edge35" class="edge">
<title>d:sw&#45;&gt;d:nw</title>
<path fill="none" stroke="#000000" d="M171.5,-466C166,-455.5 154,-455.5 154,-484 154,-501.8125 158.6875,-508.4922 163.5459,-508.4336"/>
<polygon fill="#000000" stroke="#000000" points="165.926,-511.0101 171.5,-502 161.5238,-505.5675 165.926,-511.0101"/>
<text text-anchor="middle" x="77" y="-480.3" font-family="Times,serif" font-size="14.00" fill="#000000">If user enter invalid input &#160;&#160;&#160;</text>
</g>
<!-- e -->
<g id="node15" class="node">
<title>e</title>
<polygon fill="none" stroke="#000000" points="364.5,-415 194.5,-415 194.5,-379 364.5,-379 364.5,-415"/>
<text text-anchor="middle" x="279.5" y="-393.3" font-family="Times,serif" font-size="14.00" fill="#000000">Get seat selection from user</text>
</g>
<!-- d&#45;&gt;e -->
<g id="edge5" class="edge">
<title>d&#45;&gt;e</title>
<path fill="none" stroke="#000000" d="M279.5,-465.9735C279.5,-454.1918 279.5,-438.5607 279.5,-425.1581"/>
<polygon fill="#000000" stroke="#000000" points="283.0001,-425.0033 279.5,-415.0034 276.0001,-425.0034 283.0001,-425.0033"/>
</g>
<!-- d&#45;&gt;e -->
<g id="edge21" class="edge">
<title>d&#45;&gt;e</title>
<path fill="none" stroke="#000000" d="M289.3069,-455.7728C290.8462,-448.3955 291.6096,-440.4285 290.5,-433 289.6118,-427.0535 287.9413,-420.7317 286.1656,-415.0722"/>
<polygon fill="#000000" stroke="#000000" points="285.857,-455.1328 286.7283,-465.6917 292.6318,-456.8941 285.857,-455.1328"/>
<text text-anchor="middle" x="398.5" y="-436.8" font-family="Times,serif" font-size="14.00" fill="#000000"> &#160;&#160;&#160;If user want to back to previous step</text>
</g>
<!-- e&#45;&gt;_e -->
<g id="edge28" class="edge">
<title>e&#45;&gt;_e</title>
<path fill="none" stroke="#000000" d="M364.787,-397C443.6755,-397 554.0441,-397 590.3785,-397"/>
<polygon fill="#000000" stroke="#000000" points="590.4592,-400.5001 600.4591,-397 590.4591,-393.5001 590.4592,-400.5001"/>
<text text-anchor="middle" x="482.6" y="-403.8" font-family="Times,serif" font-size="14.00" fill="#000000">If user want to return to main menu</text>
</g>
<!-- e&#45;&gt;e -->
<g id="edge36" class="edge">
<title>e:sw&#45;&gt;e:nw</title>
<path fill="none" stroke="#000000" d="M194.5,-379C188.5,-368.5 176.5,-368.5 176.5,-397 176.5,-415.2578 181.4248,-421.8192 186.542,-421.4166"/>
<polygon fill="#000000" stroke="#000000" points="188.9122,-424.0015 194.5,-415 184.5184,-418.5523 188.9122,-424.0015"/>
<text text-anchor="middle" x="99.5" y="-393.3" font-family="Times,serif" font-size="14.00" fill="#000000">If user enter invalid input &#160;&#160;&#160;</text>
</g>
<!-- f -->
<g id="node16" class="node">
<title>f</title>
<polygon fill="none" stroke="#000000" points="371.5,-328 187.5,-328 187.5,-292 371.5,-292 371.5,-328"/>
<text text-anchor="middle" x="279.5" y="-306.3" font-family="Times,serif" font-size="14.00" fill="#000000">Get passenger name from user</text>
</g>
<!-- e&#45;&gt;f -->
<g id="edge6" class="edge">
<title>e&#45;&gt;f</title>
<path fill="none" stroke="#000000" d="M279.5,-378.9735C279.5,-367.1918 279.5,-351.5607 279.5,-338.1581"/>
<polygon fill="#000000" stroke="#000000" points="283.0001,-338.0033 279.5,-328.0034 276.0001,-338.0034 283.0001,-338.0033"/>
</g>
<!-- e&#45;&gt;f -->
<g id="edge22" class="edge">
<title>e&#45;&gt;f</title>
<path fill="none" stroke="#000000" d="M289.3069,-368.7728C290.8462,-361.3955 291.6096,-353.4285 290.5,-346 289.6118,-340.0535 287.9413,-333.7317 286.1656,-328.0722"/>
<polygon fill="#000000" stroke="#000000" points="285.857,-368.1328 286.7283,-378.6917 292.6318,-369.8941 285.857,-368.1328"/>
<text text-anchor="middle" x="398.5" y="-349.8" font-family="Times,serif" font-size="14.00" fill="#000000"> &#160;&#160;&#160;If user want to back to previous step</text>
</g>
<!-- f&#45;&gt;_f -->
<g id="edge29" class="edge">
<title>f&#45;&gt;_f</title>
<path fill="none" stroke="#000000" d="M371.6266,-310C449.9826,-310 555.2383,-310 590.4568,-310"/>
<polygon fill="#000000" stroke="#000000" points="590.5527,-313.5001 600.5527,-310 590.5527,-306.5001 590.5527,-313.5001"/>
<text text-anchor="middle" x="486.1" y="-316.8" font-family="Times,serif" font-size="14.00" fill="#000000">If user want to return to main menu</text>
</g>
<!-- f&#45;&gt;f -->
<g id="edge37" class="edge">
<title>f:sw&#45;&gt;f:nw</title>
<path fill="none" stroke="#000000" d="M187.5,-292C181.5,-283 169.5,-283 169.5,-310 169.5,-326.4531 173.9561,-332.8801 178.7951,-333.3541"/>
<polygon fill="#000000" stroke="#000000" points="180.8159,-336.2203 187.5,-328 177.1485,-330.2578 180.8159,-336.2203"/>
<text text-anchor="middle" x="92.5" y="-306.3" font-family="Times,serif" font-size="14.00" fill="#000000">If user enter invalid input &#160;&#160;&#160;</text>
</g>
<!-- g -->
<g id="node17" class="node">
<title>g</title>
<polygon fill="none" stroke="#000000" points="320.5,-255 238.5,-255 238.5,-219 320.5,-219 320.5,-255"/>
<text text-anchor="middle" x="279.5" y="-233.3" font-family="Times,serif" font-size="14.00" fill="#000000">Print details</text>
</g>
<!-- f&#45;&gt;g -->
<g id="edge7" class="edge">
<title>f&#45;&gt;g</title>
<path fill="none" stroke="#000000" d="M279.5,-291.9551C279.5,-283.8828 279.5,-274.1764 279.5,-265.1817"/>
<polygon fill="#000000" stroke="#000000" points="283.0001,-265.0903 279.5,-255.0904 276.0001,-265.0904 283.0001,-265.0903"/>
</g>
<!-- h -->
<g id="node18" class="node">
<title>h</title>
<polygon fill="none" stroke="#000000" points="361,-182 198,-182 198,-146 361,-146 361,-182"/>
<text text-anchor="middle" x="279.5" y="-160.3" font-family="Times,serif" font-size="14.00" fill="#000000">Get confimation from user</text>
</g>
<!-- f&#45;&gt;h -->
<g id="edge23" class="edge">
<title>f&#45;&gt;h</title>
<path fill="none" stroke="#000000" d="M309.4876,-284.8489C317.5508,-276.2998 325.2171,-266.0782 329.5,-255 335.2695,-240.0765 335.2695,-233.9235 329.5,-219 323.9625,-204.6767 312.7692,-191.7852 302.3747,-182.0894"/>
<polygon fill="#000000" stroke="#000000" points="307.0054,-282.3813 302.3747,-291.9106 311.9372,-287.3489 307.0054,-282.3813"/>
<text text-anchor="middle" x="440.5" y="-233.3" font-family="Times,serif" font-size="14.00" fill="#000000"> &#160;&#160;&#160;If user want to back to previous step</text>
</g>
<!-- g&#45;&gt;h -->
<g id="edge8" class="edge">
<title>g&#45;&gt;h</title>
<path fill="none" stroke="#000000" d="M279.5,-218.9551C279.5,-210.8828 279.5,-201.1764 279.5,-192.1817"/>
<polygon fill="#000000" stroke="#000000" points="283.0001,-192.0903 279.5,-182.0904 276.0001,-192.0904 283.0001,-192.0903"/>
</g>
<!-- h&#45;&gt;_g -->
<g id="edge30" class="edge">
<title>h&#45;&gt;_g</title>
<path fill="none" stroke="#000000" d="M361.0065,-164C439.8874,-164 552.8301,-164 590.0689,-164"/>
<polygon fill="#000000" stroke="#000000" points="590.4056,-167.5001 600.4056,-164 590.4055,-160.5001 590.4056,-167.5001"/>
<text text-anchor="middle" x="480.85" y="-170.8" font-family="Times,serif" font-size="14.00" fill="#000000">If user want to return to main menu</text>
</g>
<!-- h&#45;&gt;h -->
<g id="edge38" class="edge">
<title>h:sw&#45;&gt;h:nw</title>
<path fill="none" stroke="#000000" d="M197.5,-146C192,-137 180,-137 180,-164 180,-180.0313 184.2305,-186.5439 188.819,-187.3058"/>
<polygon fill="#000000" stroke="#000000" points="190.7928,-190.2015 197.5,-182 187.1422,-184.2287 190.7928,-190.2015"/>
<text text-anchor="middle" x="103" y="-160.3" font-family="Times,serif" font-size="14.00" fill="#000000">If user enter invalid input &#160;&#160;&#160;</text>
</g>
<!-- i -->
<g id="node19" class="node">
<title>i</title>
<polygon fill="none" stroke="#000000" points="318,-109 241,-109 241,-73 318,-73 318,-109"/>
<text text-anchor="middle" x="279.5" y="-87.3" font-family="Times,serif" font-size="14.00" fill="#000000">Print ticket</text>
</g>
<!-- h&#45;&gt;i -->
<g id="edge9" class="edge">
<title>h&#45;&gt;i</title>
<path fill="none" stroke="#000000" d="M279.5,-145.9551C279.5,-137.8828 279.5,-128.1764 279.5,-119.1817"/>
<polygon fill="#000000" stroke="#000000" points="283.0001,-119.0903 279.5,-109.0904 276.0001,-119.0904 283.0001,-119.0903"/>
</g>
<!-- i&#45;&gt;_h -->
<g id="edge31" class="edge">
<title>i&#45;&gt;_h</title>
<path fill="none" stroke="#000000" d="M318.2979,-91C408.9847,-91 499.6715,-91 590.3584,-91"/>
<polygon fill="#000000" stroke="#000000" points="590.5572,-94.5001 600.5572,-91 590.5572,-87.5001 590.5572,-94.5001"/>
</g>
</g>
</svg>
